<svg width="105" height="21" viewBox="0 0 105 21" fill="none" xmlns="http://www.w3.org/2000/svg">
<path d="M3.49999 12.25C3.33441 12.2506 3.17207 12.2041 3.03183 12.1161C2.89158 12.0281 2.7792 11.9021 2.70772 11.7527C2.63625 11.6033 2.60862 11.4368 2.62806 11.2723C2.64749 11.1079 2.71318 10.9523 2.81749 10.8238L11.48 1.89875C11.545 1.82375 11.6335 1.77306 11.7311 1.75502C11.8287 1.73697 11.9295 1.75264 12.017 1.79944C12.1045 1.84625 12.1735 1.92141 12.2127 2.0126C12.2518 2.10378 12.2588 2.20557 12.2325 2.30125L10.5525 7.56875C10.503 7.70134 10.4863 7.84396 10.504 7.98438C10.5217 8.12481 10.5732 8.25885 10.6541 8.375C10.7349 8.49115 10.8428 8.58595 10.9684 8.65127C11.0939 8.71658 11.2335 8.75046 11.375 8.75H17.5C17.6656 8.74944 17.8279 8.79587 17.9682 8.8839C18.1084 8.97193 18.2208 9.09794 18.2923 9.2473C18.3637 9.39666 18.3914 9.56324 18.3719 9.72768C18.3525 9.89211 18.2868 10.0477 18.1825 10.1763L9.51999 19.1013C9.45501 19.1763 9.36647 19.2269 9.26888 19.245C9.1713 19.263 9.07048 19.2474 8.98298 19.2006C8.89547 19.1538 8.82648 19.0786 8.78733 18.9874C8.74817 18.8962 8.74118 18.7944 8.76749 18.6988L10.4475 13.4313C10.497 13.2987 10.5137 13.156 10.496 13.0156C10.4783 12.8752 10.4268 12.7412 10.3459 12.625C10.265 12.5089 10.1572 12.4141 10.0316 12.3487C9.90606 12.2834 9.76653 12.2495 9.62499 12.25H3.49999Z" fill="#038A49"/>
<path d="M26.954 15.18C26.322 15.18 25.792 15.03 25.364 14.73C24.936 14.43 24.614 14.022 24.398 13.506C24.182 12.986 24.074 12.404 24.074 11.76C24.074 11.108 24.182 10.524 24.398 10.008C24.614 9.492 24.93 9.086 25.346 8.79C25.766 8.49 26.284 8.34 26.9 8.34C27.512 8.34 28.042 8.49 28.49 8.79C28.942 9.086 29.292 9.492 29.54 10.008C29.788 10.52 29.912 11.104 29.912 11.76C29.912 12.408 29.79 12.99 29.546 13.506C29.302 14.022 28.958 14.43 28.514 14.73C28.07 15.03 27.55 15.18 26.954 15.18ZM23.828 15V6.36H25.286V10.452H25.106V15H23.828ZM26.732 13.884C27.108 13.884 27.418 13.79 27.662 13.602C27.906 13.414 28.086 13.16 28.202 12.84C28.322 12.516 28.382 12.156 28.382 11.76C28.382 11.368 28.322 11.012 28.202 10.692C28.082 10.368 27.896 10.112 27.644 9.924C27.392 9.732 27.072 9.636 26.684 9.636C26.316 9.636 26.016 9.726 25.784 9.906C25.552 10.082 25.38 10.33 25.268 10.65C25.16 10.966 25.106 11.336 25.106 11.76C25.106 12.18 25.16 12.55 25.268 12.87C25.38 13.19 25.554 13.44 25.79 13.62C26.03 13.796 26.344 13.884 26.732 13.884ZM31.3545 15V6.18H32.8005V15H31.3545ZM34.7178 7.536V6.21H36.1638V7.536H34.7178ZM34.7178 15V8.52H36.1638V15H34.7178ZM41.7591 15C41.3311 15.08 40.9111 15.114 40.4991 15.102C40.0911 15.094 39.7251 15.02 39.4011 14.88C39.0771 14.736 38.8311 14.51 38.6631 14.202C38.5151 13.922 38.4371 13.636 38.4291 13.344C38.4211 13.052 38.4171 12.722 38.4171 12.354V6.72H39.8571V12.27C39.8571 12.53 39.8591 12.758 39.8631 12.954C39.8711 13.15 39.9131 13.31 39.9891 13.434C40.1331 13.674 40.3631 13.808 40.6791 13.836C40.9951 13.864 41.3551 13.848 41.7591 13.788V15ZM37.2411 9.654V8.52H41.7591V9.654H37.2411ZM42.5525 15V14.802L45.9845 9.786H42.9005V8.52H48.2345V8.724L44.8145 13.734H48.0905V15H42.5525ZM49.5509 15V8.52H50.8289V10.098L50.6729 9.894C50.7529 9.678 50.8589 9.482 50.9909 9.306C51.1269 9.126 51.2889 8.978 51.4769 8.862C51.6369 8.754 51.8129 8.67 52.0049 8.61C52.2009 8.546 52.4009 8.508 52.6049 8.496C52.8089 8.48 53.0069 8.488 53.1989 8.52V9.87C53.0069 9.814 52.7849 9.796 52.5329 9.816C52.2849 9.836 52.0609 9.906 51.8609 10.026C51.6609 10.134 51.4969 10.272 51.3689 10.44C51.2449 10.608 51.1529 10.8 51.0929 11.016C51.0329 11.228 51.0029 11.458 51.0029 11.706V15H49.5509ZM57.1727 15.18C56.5167 15.18 55.9407 15.038 55.4447 14.754C54.9487 14.47 54.5607 14.076 54.2807 13.572C54.0047 13.068 53.8667 12.488 53.8667 11.832C53.8667 11.124 54.0027 10.51 54.2747 9.99C54.5467 9.466 54.9247 9.06 55.4087 8.772C55.8927 8.484 56.4527 8.34 57.0887 8.34C57.7607 8.34 58.3307 8.498 58.7987 8.814C59.2707 9.126 59.6207 9.568 59.8487 10.14C60.0767 10.712 60.1627 11.386 60.1067 12.162H58.6727V11.634C58.6687 10.93 58.5447 10.416 58.3007 10.092C58.0567 9.768 57.6727 9.606 57.1487 9.606C56.5567 9.606 56.1167 9.79 55.8287 10.158C55.5407 10.522 55.3967 11.056 55.3967 11.76C55.3967 12.416 55.5407 12.924 55.8287 13.284C56.1167 13.644 56.5367 13.824 57.0887 13.824C57.4447 13.824 57.7507 13.746 58.0067 13.59C58.2667 13.43 58.4667 13.2 58.6067 12.9L60.0347 13.332C59.7867 13.916 59.4027 14.37 58.8827 14.694C58.3667 15.018 57.7967 15.18 57.1727 15.18ZM54.9407 12.162V11.07H59.3987V12.162H54.9407ZM64.2595 15.18C63.5915 15.18 63.0215 15.032 62.5495 14.736C62.0775 14.436 61.7155 14.028 61.4635 13.512C61.2155 12.996 61.0895 12.412 61.0855 11.76C61.0895 11.096 61.2195 10.508 61.4755 9.996C61.7355 9.48 62.1035 9.076 62.5795 8.784C63.0555 8.488 63.6215 8.34 64.2775 8.34C65.0135 8.34 65.6355 8.526 66.1435 8.898C66.6555 9.266 66.9895 9.77 67.1455 10.41L65.7055 10.8C65.5935 10.452 65.4075 10.182 65.1475 9.99C64.8875 9.794 64.5915 9.696 64.2595 9.696C63.8835 9.696 63.5735 9.786 63.3295 9.966C63.0855 10.142 62.9055 10.386 62.7895 10.698C62.6735 11.01 62.6155 11.364 62.6155 11.76C62.6155 12.376 62.7535 12.874 63.0295 13.254C63.3055 13.634 63.7155 13.824 64.2595 13.824C64.6435 13.824 64.9455 13.736 65.1655 13.56C65.3895 13.384 65.5575 13.13 65.6695 12.798L67.1455 13.128C66.9455 13.788 66.5955 14.296 66.0955 14.652C65.5955 15.004 64.9835 15.18 64.2595 15.18ZM72.8298 15V11.88C72.8298 11.676 72.8158 11.45 72.7878 11.202C72.7598 10.954 72.6938 10.716 72.5898 10.488C72.4898 10.256 72.3378 10.066 72.1338 9.918C71.9338 9.77 71.6618 9.696 71.3178 9.696C71.1338 9.696 70.9518 9.726 70.7718 9.786C70.5918 9.846 70.4278 9.95 70.2798 10.098C70.1358 10.242 70.0198 10.442 69.9318 10.698C69.8438 10.95 69.7998 11.274 69.7998 11.67L68.9418 11.304C68.9418 10.752 69.0478 10.252 69.2598 9.804C69.4758 9.356 69.7918 9 70.2078 8.736C70.6238 8.468 71.1358 8.334 71.7438 8.334C72.2238 8.334 72.6198 8.414 72.9318 8.574C73.2438 8.734 73.4918 8.938 73.6758 9.186C73.8598 9.434 73.9958 9.698 74.0838 9.978C74.1718 10.258 74.2278 10.524 74.2518 10.776C74.2798 11.024 74.2938 11.226 74.2938 11.382V15H72.8298ZM68.3358 15V6.36H69.6258V10.908H69.7998V15H68.3358ZM80.3415 15V11.88C80.3415 11.676 80.3275 11.45 80.2995 11.202C80.2715 10.954 80.2055 10.716 80.1015 10.488C80.0015 10.256 79.8495 10.066 79.6455 9.918C79.4455 9.77 79.1735 9.696 78.8295 9.696C78.6455 9.696 78.4635 9.726 78.2835 9.786C78.1035 9.846 77.9395 9.95 77.7915 10.098C77.6475 10.242 77.5315 10.442 77.4435 10.698C77.3555 10.95 77.3115 11.274 77.3115 11.67L76.4535 11.304C76.4535 10.752 76.5595 10.252 76.7715 9.804C76.9875 9.356 77.3035 9 77.7195 8.736C78.1355 8.468 78.6475 8.334 79.2555 8.334C79.7355 8.334 80.1315 8.414 80.4435 8.574C80.7555 8.734 81.0035 8.938 81.1875 9.186C81.3715 9.434 81.5075 9.698 81.5955 9.978C81.6835 10.258 81.7395 10.524 81.7635 10.776C81.7915 11.024 81.8055 11.226 81.8055 11.382V15H80.3415ZM75.8475 15V8.52H77.1375V10.53H77.3115V15H75.8475ZM85.8013 15.186C85.3213 15.186 84.9253 15.106 84.6133 14.946C84.3013 14.786 84.0533 14.582 83.8693 14.334C83.6853 14.086 83.5493 13.822 83.4613 13.542C83.3733 13.262 83.3153 12.998 83.2873 12.75C83.2633 12.498 83.2513 12.294 83.2513 12.138V8.52H84.7153V11.64C84.7153 11.84 84.7293 12.066 84.7573 12.318C84.7853 12.566 84.8493 12.806 84.9493 13.038C85.0533 13.266 85.2053 13.454 85.4053 13.602C85.6093 13.75 85.8833 13.824 86.2273 13.824C86.4113 13.824 86.5933 13.794 86.7733 13.734C86.9533 13.674 87.1153 13.572 87.2593 13.428C87.4073 13.28 87.5253 13.078 87.6133 12.822C87.7013 12.566 87.7453 12.242 87.7453 11.85L88.6033 12.216C88.6033 12.768 88.4953 13.268 88.2793 13.716C88.0673 14.164 87.7533 14.522 87.3373 14.79C86.9213 15.054 86.4093 15.186 85.8013 15.186ZM87.9193 15V12.99H87.7453V8.52H89.1973V15H87.9193ZM95.365 15V11.88C95.365 11.676 95.351 11.45 95.323 11.202C95.295 10.954 95.229 10.716 95.125 10.488C95.025 10.256 94.873 10.066 94.669 9.918C94.469 9.77 94.197 9.696 93.853 9.696C93.669 9.696 93.487 9.726 93.307 9.786C93.127 9.846 92.963 9.95 92.815 10.098C92.671 10.242 92.555 10.442 92.467 10.698C92.379 10.95 92.335 11.274 92.335 11.67L91.477 11.304C91.477 10.752 91.583 10.252 91.795 9.804C92.011 9.356 92.327 9 92.743 8.736C93.159 8.468 93.671 8.334 94.279 8.334C94.759 8.334 95.155 8.414 95.467 8.574C95.779 8.734 96.027 8.938 96.211 9.186C96.395 9.434 96.531 9.698 96.619 9.978C96.707 10.258 96.763 10.524 96.787 10.776C96.815 11.024 96.829 11.226 96.829 11.382V15H95.365ZM90.871 15V8.52H92.161V10.53H92.335V15H90.871ZM101.119 18.06C100.759 18.06 100.413 18.004 100.081 17.892C99.7527 17.78 99.4567 17.618 99.1927 17.406C98.9287 17.198 98.7127 16.946 98.5447 16.65L99.8767 15.99C100.001 16.226 100.175 16.4 100.399 16.512C100.627 16.628 100.869 16.686 101.125 16.686C101.425 16.686 101.693 16.632 101.929 16.524C102.165 16.42 102.347 16.264 102.475 16.056C102.607 15.852 102.669 15.596 102.661 15.288V13.446H102.841V8.52H104.107V15.312C104.107 15.476 104.099 15.632 104.083 15.78C104.071 15.932 104.049 16.08 104.017 16.224C103.921 16.644 103.737 16.988 103.465 17.256C103.193 17.528 102.855 17.73 102.451 17.862C102.051 17.994 101.607 18.06 101.119 18.06ZM100.993 15.18C100.397 15.18 99.8767 15.03 99.4327 14.73C98.9887 14.43 98.6447 14.022 98.4007 13.506C98.1567 12.99 98.0347 12.408 98.0347 11.76C98.0347 11.104 98.1567 10.52 98.4007 10.008C98.6487 9.492 98.9987 9.086 99.4507 8.79C99.9027 8.49 100.435 8.34 101.047 8.34C101.663 8.34 102.179 8.49 102.595 8.79C103.015 9.086 103.333 9.492 103.549 10.008C103.765 10.524 103.873 11.108 103.873 11.76C103.873 12.404 103.765 12.986 103.549 13.506C103.333 14.022 103.011 14.43 102.583 14.73C102.155 15.03 101.625 15.18 100.993 15.18ZM101.215 13.884C101.603 13.884 101.915 13.796 102.151 13.62C102.391 13.44 102.565 13.19 102.673 12.87C102.785 12.55 102.841 12.18 102.841 11.76C102.841 11.336 102.785 10.966 102.673 10.65C102.565 10.33 102.395 10.082 102.163 9.906C101.931 9.726 101.631 9.636 101.263 9.636C100.875 9.636 100.555 9.732 100.303 9.924C100.051 10.112 99.8647 10.368 99.7447 10.692C99.6247 11.012 99.5647 11.368 99.5647 11.76C99.5647 12.156 99.6227 12.516 99.7387 12.84C99.8587 13.16 100.041 13.414 100.285 13.602C100.529 13.79 100.839 13.884 101.215 13.884Z" fill="black"/>
</svg>
