<svg width="64" height="64" viewBox="0 0 64 64" fill="none" xmlns="http://www.w3.org/2000/svg">
<circle cx="31.5" cy="31.5" r="31.5" fill="#024826"/>
<path d="M19.1667 34.5833C18.8749 34.5843 18.5889 34.5025 18.3418 34.3474C18.0947 34.1923 17.8967 33.9703 17.7708 33.7071C17.6448 33.444 17.5962 33.1505 17.6304 32.8608C17.6646 32.571 17.7804 32.297 17.9642 32.0704L33.2267 16.3454C33.3412 16.2133 33.4972 16.124 33.6691 16.0922C33.841 16.0604 34.0187 16.088 34.1728 16.1704C34.327 16.2529 34.4486 16.3853 34.5176 16.546C34.5865 16.7067 34.5989 16.886 34.5525 17.0546L31.5925 26.3354C31.5052 26.569 31.4759 26.8203 31.5071 27.0677C31.5383 27.3151 31.629 27.5513 31.7715 27.756C31.914 27.9606 32.104 28.1276 32.3252 28.2427C32.5465 28.3578 32.7923 28.4175 33.0417 28.4167H43.8333C44.1251 28.4157 44.4111 28.4975 44.6582 28.6526C44.9053 28.8077 45.1033 29.0297 45.2292 29.2929C45.3552 29.556 45.4038 29.8495 45.3696 30.1392C45.3354 30.429 45.2196 30.703 45.0358 30.9296L29.7733 46.6546C29.6588 46.7867 29.5028 46.876 29.3309 46.9078C29.159 46.9396 28.9813 46.912 28.8272 46.8296C28.673 46.7471 28.5514 46.6147 28.4824 46.454C28.4135 46.2933 28.4011 46.114 28.4475 45.9454L31.4075 36.6646C31.4948 36.431 31.5241 36.1797 31.4929 35.9323C31.4618 35.6849 31.371 35.4487 31.2285 35.2441C31.086 35.0394 30.896 34.8724 30.6748 34.7573C30.4536 34.6422 30.2077 34.5825 29.9583 34.5833H19.1667Z" fill="white"/>
</svg>
